<svg width="32" height="32" viewBox="0 0 32 32" fill="none" xmlns="http://www.w3.org/2000/svg">
<circle cx="16" cy="16" r="16" fill="#2F675F"/>
<path d="M6.79175 11.9166V11.5833C6.79175 11.031 7.23946 10.5833 7.79175 10.5833H24.2084C24.7607 10.5833 25.2084 11.031 25.2084 11.5833V11.9166C25.2084 12.4689 24.7607 12.9166 24.2084 12.9166H7.79175C7.23946 12.9166 6.79175 12.4689 6.79175 11.9166Z" stroke="#F9F9F9"/>
<path d="M24.125 12.9167V22.25" stroke="#F9F9F9" stroke-linecap="round" stroke-linejoin="round"/>
<path d="M11.1251 12.9167L10.0603 20.9435C10.0499 21.0221 10.1024 21.0952 10.1802 21.1105L15.9713 22.2444C15.9903 22.2481 16.0099 22.2481 16.0289 22.2444L21.82 21.1105C21.8978 21.0952 21.9503 21.0221 21.9399 20.9435L20.8751 12.9167" stroke="#F9F9F9" stroke-linejoin="round"/>
<path d="M10.0417 18.75L15.9713 19.911C15.9903 19.9147 16.0099 19.9147 16.0289 19.911L21.9584 18.75" stroke="#F9F9F9" stroke-linejoin="round"/>
</svg>
