<svg width="32" height="32" viewBox="0 0 32 32" fill="none" xmlns="http://www.w3.org/2000/svg">
<circle cx="16" cy="16" r="16" fill="#2F675F"/>
<path d="M12 8.46105C12 8.03164 12 7.81694 12.0648 7.64576C12.1663 7.37785 12.3778 7.16633 12.6458 7.06485C12.8169 7 13.0316 7 13.461 7H18.539C18.9684 7 19.1831 7 19.3542 7.06485C19.6222 7.16633 19.8337 7.37785 19.9352 7.64576C20 7.81694 20 8.03164 20 8.46105V8.46105C20 9.56756 20 10.1208 20.0734 10.6589C20.1878 11.498 20.4348 12.3135 20.805 13.0752C21.0424 13.5636 21.3493 14.0239 21.9631 14.9446L23.3617 17.0426C23.6728 17.5092 23.4277 18.1431 22.8837 18.2791V18.2791C18.3641 19.409 13.6359 19.409 9.11634 18.2791V18.2791C8.57231 18.1431 8.32723 17.5092 8.63829 17.0426L10.0369 14.9446C10.6507 14.0239 10.9576 13.5636 11.195 13.0752C11.5652 12.3135 11.8122 11.498 11.9266 10.6589C12 10.1208 12 9.56756 12 8.46105V8.46105Z" stroke="#F9F9F9"/>
<path d="M16 24L16 20" stroke="#F9F9F9" stroke-linecap="round"/>
<path d="M10 24H22" stroke="#F9F9F9"/>
</svg>
